<svg xmlns="http://www.w3.org/2000/svg" viewBox="0 0 64 64" width="64" height="64">
  <defs>
    <linearGradient id="grad1" x1="0%" y1="0%" x2="100%" y2="100%">
      <stop offset="0%" style="stop-color:#667eea;stop-opacity:1" />
      <stop offset="100%" style="stop-color:#764ba2;stop-opacity:1" />
    </linearGradient>
  </defs>
  
  <!-- 背景圆形 -->
  <circle cx="32" cy="32" r="30" fill="url(#grad1)" stroke="#fff" stroke-width="2"/>
  
  <!-- 太极图案 -->
  <g transform="translate(32,32)">
    <!-- 外圆 -->
    <circle cx="0" cy="0" r="20" fill="none" stroke="#fff" stroke-width="1.5" opacity="0.8"/>
    
    <!-- 太极S形 -->
    <path d="M 0,-20 A 10,10 0 0,1 0,0 A 10,10 0 0,0 0,20 A 20,20 0 0,1 0,-20" fill="#fff" opacity="0.9"/>
    
    <!-- 阴阳点 -->
    <circle cx="0" cy="-10" r="3" fill="#667eea"/>
    <circle cx="0" cy="10" r="3" fill="#fff"/>
    
    <!-- 中心八卦符号 -->
    <g opacity="0.7">
      <!-- 乾 -->
      <rect x="-1" y="-8" width="2" height="1" fill="#fff"/>
      <rect x="-1" y="-6" width="2" height="1" fill="#fff"/>
      <rect x="-1" y="-4" width="2" height="1" fill="#fff"/>
      
      <!-- 坤 -->
      <rect x="-1" y="4" width="2" height="1" fill="#667eea"/>
      <rect x="-1" y="6" width="2" height="1" fill="#667eea"/>
      <rect x="-1" y="8" width="2" height="1" fill="#667eea"/>
    </g>
  </g>
  
  <!-- 装饰性光环 -->
  <circle cx="32" cy="32" r="28" fill="none" stroke="#fff" stroke-width="0.5" opacity="0.3"/>
  <circle cx="32" cy="32" r="26" fill="none" stroke="#fff" stroke-width="0.3" opacity="0.2"/>
</svg>