<?xml version="1.0" encoding="UTF-8"?>
<svg width="256" height="256" viewBox="0 0 256 256" xmlns="http://www.w3.org/2000/svg">
  <defs>
    <linearGradient id="mainGradient" x1="0%" y1="0%" x2="100%" y2="100%">
      <stop offset="0%" style="stop-color:#4A90E2;stop-opacity:1" />
      <stop offset="50%" style="stop-color:#357ABD;stop-opacity:1" />
      <stop offset="100%" style="stop-color:#2E5B8A;stop-opacity:1" />
    </linearGradient>
    <linearGradient id="accentGradient" x1="0%" y1="0%" x2="100%" y2="100%">
      <stop offset="0%" style="stop-color:#F5A623;stop-opacity:1" />
      <stop offset="100%" style="stop-color:#D68910;stop-opacity:1" />
    </linearGradient>
    <filter id="shadow" x="-20%" y="-20%" width="140%" height="140%">
      <feDropShadow dx="2" dy="4" stdDeviation="3" flood-color="#000000" flood-opacity="0.3"/>
    </filter>
  </defs>
  
  <!-- Background circle -->
  <circle cx="128" cy="128" r="120" fill="url(#mainGradient)" filter="url(#shadow)"/>
  
  <!-- Inner circle for depth -->
  <circle cx="128" cy="128" r="100" fill="none" stroke="rgba(255,255,255,0.2)" stroke-width="2"/>
  
  <!-- Main symbol - stylized "太" character inspired design -->
  <g transform="translate(128,128)">
    <!-- Central vertical line -->
    <rect x="-3" y="-60" width="6" height="120" fill="white" rx="3"/>
    
    <!-- Top horizontal line -->
    <rect x="-50" y="-60" width="100" height="8" fill="white" rx="4"/>
    
    <!-- Middle horizontal line -->
    <rect x="-40" y="-20" width="80" height="6" fill="white" rx="3"/>
    
    <!-- Bottom horizontal line -->
    <rect x="-35" y="20" width="70" height="6" fill="white" rx="3"/>
    
    <!-- Decorative elements -->
    <circle cx="-25" cy="-40" r="4" fill="url(#accentGradient)"/>
    <circle cx="25" cy="-40" r="4" fill="url(#accentGradient)"/>
    <circle cx="-20" cy="0" r="3" fill="url(#accentGradient)"/>
    <circle cx="20" cy="0" r="3" fill="url(#accentGradient)"/>
    <circle cx="-15" cy="40" r="3" fill="url(#accentGradient)"/>
    <circle cx="15" cy="40" r="3" fill="url(#accentGradient)"/>
  </g>
  
  <!-- Communication symbols -->
  <g transform="translate(80,80)" opacity="0.8">
    <circle cx="0" cy="0" r="8" fill="url(#accentGradient)"/>
    <circle cx="0" cy="0" r="4" fill="white"/>
  </g>
  
  <g transform="translate(176,80)" opacity="0.8">
    <circle cx="0" cy="0" r="8" fill="url(#accentGradient)"/>
    <circle cx="0" cy="0" r="4" fill="white"/>
  </g>
  
  <g transform="translate(80,176)" opacity="0.8">
    <circle cx="0" cy="0" r="8" fill="url(#accentGradient)"/>
    <circle cx="0" cy="0" r="4" fill="white"/>
  </g>
  
  <g transform="translate(176,176)" opacity="0.8">
    <circle cx="0" cy="0" r="8" fill="url(#accentGradient)"/>
    <circle cx="0" cy="0" r="4" fill="white"/>
  </g>
  
  <!-- Connection lines -->
  <line x1="88" y1="80" x2="168" y2="80" stroke="rgba(255,255,255,0.4)" stroke-width="2"/>
  <line x1="88" y1="176" x2="168" y2="176" stroke="rgba(255,255,255,0.4)" stroke-width="2"/>
  <line x1="80" y1="88" x2="80" y2="168" stroke="rgba(255,255,255,0.4)" stroke-width="2"/>
  <line x1="176" y1="88" x2="176" y2="168" stroke="rgba(255,255,255,0.4)" stroke-width="2"/>
  
  <!-- Outer ring highlight -->
  <circle cx="128" cy="128" r="120" fill="none" stroke="rgba(255,255,255,0.3)" stroke-width="1"/>
</svg>